<svg width="50" height="51" viewBox="0 0 50 51" fill="none" xmlns="http://www.w3.org/2000/svg">
<rect x="1" y="1" width="48" height="49" rx="24" fill="white" stroke="#427B56" stroke-width="2"/>
<path d="M12.6089 10.4453C12.6089 9.33914 13.3213 8.33751 14.4327 7.8933L23.5519 4.23517C24.3309 3.92161 25.2143 3.92161 25.9932 4.23517L35.1125 7.8933C36.2144 8.33751 36.9268 9.33914 36.9268 10.4453V19.0768C36.9268 25.2346 31.4838 30.2254 24.7678 30.2254C18.0519 30.2254 12.6089 25.2346 12.6089 19.0768V10.4453ZM32.3672 17.6832H21.7661H21.7281H17.1685V19.0768C17.1685 22.9265 20.5692 26.0446 24.7678 26.0446C28.9665 26.0446 32.3672 22.9265 32.3672 19.0768V17.6832ZM23.248 7.92814V9.32172H21.7281C21.3101 9.32172 20.9682 9.63527 20.9682 10.0185V11.4121C20.9682 11.7953 21.3101 12.1089 21.7281 12.1089H23.248V13.5024C23.248 13.8857 23.5899 14.1992 24.0079 14.1992H25.5278C25.9457 14.1992 26.2877 13.8857 26.2877 13.5024V12.1089H27.8076C28.2255 12.1089 28.5675 11.7953 28.5675 11.4121V10.0185C28.5675 9.63527 28.2255 9.32172 27.8076 9.32172H26.2877V7.92814C26.2877 7.54491 25.9457 7.23136 25.5278 7.23136H24.0079C23.5899 7.23136 23.248 7.54491 23.248 7.92814Z" fill="#427B56"/>
<path d="M14.8887 33.2944C15.5916 32.9983 16.418 33.1115 17.0355 33.5383H17.0165L23.3809 37.9106C24.1884 38.4681 25.3093 38.4681 26.1167 37.9106L32.4812 33.5383C33.0986 33.1115 33.9251 32.9983 34.628 33.2944C40.4605 35.7419 43 36.7289 43 43C43 44.4284 35.0579 49.5 33.5 49.5L32 50L30 50.5L27.5 51H25L21 50.5L19 50L17 49.5C15.4421 49.5 8.5 45.9284 8.5 44.5C8.5 38.2376 9.05616 35.7506 14.8887 33.2944Z" fill="#437A57"/>
</svg>
